<?xml version="1.0" encoding="UTF-8"?>
<svg id="Layer_1" xmlns="http://www.w3.org/2000/svg" version="1.1" viewBox="0 0 48 48">
  <!-- Generator: Adobe Illustrator 30.0.0, SVG Export Plug-In . SVG Version: 2.1.1 Build 123)  -->
  <defs>
    <style>
      .st0 {
        fill: #006cb6;
      }
    </style>
  </defs>
  <g id="_8-Email">
    <path class="st0" d="M45,7H3c-1.7,0-3,1.3-3,3v28c0,1.7,1.3,3,3,3h42c1.7,0,3-1.3,3-3V10c0-1.7-1.3-3-3-3ZM44.4,9H3.6h40.7ZM2,37.6V10.3l15.4,11.9-15.4,15.4ZM3.4,39l15.6-15.6,4.4,3.4c.4.3.9.3,1.2,0l4.4-3.4,15.6,15.6H3.4ZM46,37.6l-15.4-15.4,15.4-11.9v27.3Z"/>
  </g>
</svg>