<?xml version="1.0" encoding="UTF-8"?>
<svg id="Layer_1" xmlns="http://www.w3.org/2000/svg" version="1.1" viewBox="0 0 512 512">
  <!-- Generator: Adobe Illustrator 30.0.0, SVG Export Plug-In . SVG Version: 2.1.1 Build 123)  -->
  <defs>
    <style>
      .st0 {
        fill: none;
        stroke: #056db6;
        stroke-linecap: round;
        stroke-linejoin: round;
        stroke-width: 15px;
      }
    </style>
  </defs>
  <path class="st0" d="M260.7,154.4l38.9,20.4c7.4,3.9,16-2.4,14.6-10.6l-7.4-43.3c-.6-3.3.5-6.6,2.9-8.9l31.4-30.6c6-5.8,2.7-16-5.6-17.1l-43.5-6.3c-3.3-.5-6.1-2.5-7.6-5.5l-19.4-39.4c-3.7-7.5-14.3-7.5-18,0l-19.4,39.4c-1.5,3-4.3,5-7.6,5.5l-43.4,6.3c-8.2,1.2-11.5,11.3-5.6,17.1l31.4,30.6c2.4,2.3,3.5,5.6,2.9,8.9l-7.4,43.3c-1.4,8.2,7.2,14.5,14.6,10.6l38.9-20.4c2.9-1.5,6.4-1.5,9.4,0Z"/>
  <path class="st0" d="M130.4,458.2v-41.1c0-3.8,3.1-6.9,6.9-6.9h237.4c3.8,0,6.9,3.1,6.9,6.9v41.1"/>
  <path class="st0" d="M303.7,458.2H113.9c-3.2,0-6,2.3-6.7,5.4l-7,32.6c-.9,4.3,2.3,8.3,6.7,8.3h298.3c4.4,0,7.6-4,6.7-8.3l-7-32.6c-.7-3.2-3.5-5.4-6.7-5.4h-58.6"/>
  <path class="st0" d="M331.5,90.7l25.6-12.9c8.2-4.1,17.7,2.2,17.1,11.3l-19.7,321.1h-197l-19.5-205.7c-.9-9.5,4.1-18.6,12.7-22.9l12.7-6.4"/>
  <path class="st0" d="M256,211.1v71"/>
  <path class="st0" d="M216.8,232.3v56.1"/>
  <path class="st0" d="M256,211.1v101.4"/>
  <path class="st0" d="M295.2,232.3v56.1"/>
  <path class="st0" d="M295.5,378.5h-75.1c-8.9,0-16.1-7.2-16.1-16.1s7.2-16.1,16.1-16.1h75.1c8.9,0,16.1,7.2,16.1,16.1s-7.2,16.1-16.1,16.1Z"/>
</svg>