<?xml version="1.0" encoding="UTF-8"?>
<svg id="Layer_1" xmlns="http://www.w3.org/2000/svg" version="1.1" viewBox="0 0 512 512">
  <!-- Generator: Adobe Illustrator 30.0.0, SVG Export Plug-In . SVG Version: 2.1.1 Build 123)  -->
  <defs>
    <style>
      .st0 {
        fill: #006cb6;
      }
    </style>
  </defs>
  <path class="st0" d="M469.3,0H213.3c-23.6,0-42.6,19.1-42.7,42.7v3.4L32.6,79.5c-22.9,5.5-37,28.6-31.5,51.5,0,0,0,0,0,0l84.3,348.3c5.5,22.9,28.4,37,51.3,31.5,0,0,.1,0,.2,0l204.3-49.5v33.6c0,9.4,7.6,17.1,17.1,17.1,4.5,0,8.9-1.8,12.1-5l22.1-22.1,22.1,22.1c6.7,6.7,17.5,6.7,24.1,0,3.2-3.2,5-7.5,5-12v-51.2h25.6c23.6,0,42.6-19.1,42.7-42.7V42.7c0-23.6-19.1-42.6-42.7-42.7ZM341.3,443.7l-208.3,50.5c-13.7,3.3-27.6-5.1-30.9-18.9,0,0,0,0,0,0L17.8,127c-3.3-13.7,5.1-27.6,18.9-30.9,0,0,0,0,0,0l134-32.4v43.9l-57.6,14c-4.6,1.1-7.4,5.7-6.3,10.3.9,3.8,4.3,6.5,8.3,6.5.7,0,1.4,0,2-.2l53.6-13v26.4l-47.6,11.5c-4.6,1.1-7.4,5.7-6.2,10.3.9,3.8,4.3,6.5,8.2,6.5.7,0,1.4,0,2-.2l43.6-10.5v26.3l-37.5,9.1c-4.6,1.1-7.4,5.7-6.3,10.3.9,3.8,4.3,6.5,8.3,6.5.7,0,1.4,0,2-.2l33.5-8.1v26.3l-27.5,6.7c-4.6,1.1-7.4,5.7-6.3,10.3.9,3.8,4.4,6.5,8.3,6.5.7,0,1.4,0,2-.2l23.5-5.7v144.3c0,23.6,19.1,42.6,42.7,42.7h128ZM426.7,494.9l-22.1-22.1c-6.8-6.4-17.4-6.4-24.1,0l-22.1,22.1v-102c7.3,8.7,20,10.7,29.6,4.5l1.5-.9c1.9-1.2,4.2-1.2,6.1,0l1.4.9c9.6,6.2,22.3,4.3,29.6-4.5v102ZM442.4,365.6c-1.1,1.1-2.7,1.7-4.3,1.6h-1.7c-8.9-.5-17.2,4.3-21.3,12.2l-.8,1.5c-1.4,2.8-4.9,3.9-7.6,2.4-.2,0-.3-.2-.5-.3l-1.4-.9c-7.5-4.8-17.1-4.8-24.6,0l-1.4.9c-1.3.9-3,1.1-4.5.7-1.5-.4-2.8-1.5-3.6-2.9l-.8-1.5c-3.9-7.5-11.7-12.3-20.2-12.3h-2.8c-1.6.2-3.2-.4-4.3-1.6-1.1-1.1-1.7-2.7-1.6-4.3v-1.7c.5-8.9-4.3-17.2-12.2-21.3l-1.5-.8c-2.8-1.4-3.9-4.9-2.4-7.6,0-.2.2-.3.3-.5l.9-1.4c4.8-7.5,4.8-17.1,0-24.6l-.9-1.4c-1.7-2.6-.9-6.2,1.7-7.8.2,0,.3-.2.5-.3l1.5-.8c7.9-4.1,12.7-12.4,12.3-21.2v-1.7c-.2-1.6.4-3.1,1.6-4.3,1.1-1.1,2.7-1.7,4.3-1.6h1.7c8.9.5,17.2-4.3,21.3-12.2l.8-1.5c1.4-2.8,4.9-3.9,7.6-2.4.2,0,.3.2.5.3l1.4.9c7.5,4.8,17.1,4.8,24.6,0l1.4-.9c2.6-1.7,6.2-.9,7.8,1.7,0,.2.2.3.3.5l.8,1.5c4.1,7.9,12.4,12.7,21.2,12.3h1.7c1.6-.2,3.2.4,4.3,1.6,1.1,1.1,1.7,2.7,1.6,4.3v1.7c-.5,8.9,4.3,17.2,12.2,21.3l1.5.8c2.8,1.4,3.9,4.9,2.4,7.6,0,.2-.2.3-.3.5l-.9,1.4c-4.8,7.5-4.8,17.1,0,24.6l.9,1.4c1.7,2.6.9,6.2-1.7,7.8-.2,0-.3.2-.5.3l-1.5.8c-7.9,4.1-12.7,12.4-12.3,21.2v1.7c.2,1.6-.4,3.1-1.6,4.3h0ZM494.9,401.1c0,14.1-11.5,25.6-25.6,25.6h-25.6v-43.1c10.6-2.4,17.9-12.2,17.3-23v-1.7c-.2-2.2,1-4.3,3-5.3l1.5-.8c11.2-5.8,15.5-19.5,9.8-30.7-.3-.6-.7-1.2-1.1-1.8l-.9-1.5c-1.2-1.9-1.2-4.3,0-6.1l.9-1.4c6.8-10.6,3.7-24.6-6.9-31.4-.6-.4-1.2-.7-1.8-1.1l-1.5-.8c-2-1-3.2-3.1-3.1-5.3v-1.7c.7-12.5-9-23.2-21.5-23.8-.7,0-1.4,0-2.1,0h-1.7c-2.2.2-4.3-1-5.3-3l-.8-1.5c-5.8-11.2-19.5-15.5-30.7-9.8-.6.3-1.2.7-1.8,1.1l-1.4.9c-1.9,1.2-4.3,1.2-6.1,0l-1.4-.9c-10.6-6.8-24.6-3.7-31.4,6.9-.4.6-.7,1.2-1.1,1.8l-.8,1.5c-1.1,1.9-3.1,3.1-5.3,3.1h-1.7c-12.5-.7-23.2,9-23.8,21.5,0,.7,0,1.4,0,2.1v1.7c.2,2.2-1,4.3-3,5.3l-1.5.8c-11.2,5.8-15.5,19.5-9.8,30.7.3.6.7,1.2,1.1,1.8l.9,1.5c1.2,1.9,1.2,4.3,0,6.1l-.9,1.4c-6.8,10.6-3.7,24.6,6.9,31.4.6.4,1.2.7,1.8,1.1l1.5.8c2,1,3.2,3.1,3.1,5.3v1.7c-.7,10.9,6.6,20.6,17.3,23.1v43.1h-128c-14.1,0-25.6-11.5-25.6-25.6V42.7c0-14.1,11.5-25.6,25.6-25.6h256c14.1,0,25.6,11.5,25.6,25.6v358.4Z"/>
  <path class="st0" d="M392.5,264.5c-28.3,0-51.2,22.9-51.2,51.2s22.9,51.2,51.2,51.2,51.2-22.9,51.2-51.2c0-28.3-22.9-51.2-51.2-51.2ZM392.5,349.9c-18.9,0-34.1-15.3-34.1-34.1s15.3-34.1,34.1-34.1,34.1,15.3,34.1,34.1-15.3,34.1-34.1,34.1ZM238.9,59.7h-17.1c-4.7,0-8.5,3.8-8.5,8.5s3.8,8.5,8.5,8.5h17.1c4.7,0,8.5-3.8,8.5-8.5s-3.8-8.5-8.5-8.5ZM460.8,59.7h-179.2c-4.7,0-8.5,3.8-8.5,8.5s3.8,8.5,8.5,8.5h179.2c4.7,0,8.5-3.8,8.5-8.5s-3.8-8.5-8.5-8.5ZM238.9,102.4h-17.1c-4.7,0-8.5,3.8-8.5,8.5s3.8,8.5,8.5,8.5h17.1c4.7,0,8.5-3.8,8.5-8.5s-3.8-8.5-8.5-8.5ZM460.8,102.4h-179.2c-4.7,0-8.5,3.8-8.5,8.5s3.8,8.5,8.5,8.5h179.2c4.7,0,8.5-3.8,8.5-8.5s-3.8-8.5-8.5-8.5ZM238.9,145.1h-17.1c-4.7,0-8.5,3.8-8.5,8.5s3.8,8.5,8.5,8.5h17.1c4.7,0,8.5-3.8,8.5-8.5s-3.8-8.5-8.5-8.5ZM460.8,145.1h-179.2c-4.7,0-8.5,3.8-8.5,8.5s3.8,8.5,8.5,8.5h179.2c4.7,0,8.5-3.8,8.5-8.5s-3.8-8.5-8.5-8.5ZM238.9,187.7h-17.1c-4.7,0-8.5,3.8-8.5,8.5s3.8,8.5,8.5,8.5h17.1c4.7,0,8.5-3.8,8.5-8.5s-3.8-8.5-8.5-8.5ZM324.3,187.7h-42.7c-4.7,0-8.5,3.8-8.5,8.5s3.8,8.5,8.5,8.5h42.7c4.7,0,8.5-3.8,8.5-8.5s-3.8-8.5-8.5-8.5ZM75.6,148.1c4.6-1,7.6-5.5,6.6-10.1-1-4.6-5.5-7.6-10.1-6.6-.2,0-.3,0-.5.1l-16.6,4c-4.6,1.1-7.4,5.7-6.2,10.3.9,3.8,4.3,6.5,8.3,6.5.7,0,1.4,0,2-.2l16.6-4ZM85.6,189.6c4.6-1.1,7.4-5.7,6.3-10.3-1.1-4.6-5.7-7.4-10.3-6.3h0l-16.6,4c-4.6,1.1-7.4,5.7-6.3,10.3.9,3.8,4.4,6.5,8.3,6.5.7,0,1.4,0,2-.2l16.6-4ZM95.7,231.1c4.6-1,7.5-5.5,6.6-10.1s-5.5-7.5-10.1-6.6c-.2,0-.3,0-.4.1l-16.6,4c-4.6,1.1-7.4,5.7-6.3,10.3.9,3.8,4.3,6.5,8.3,6.5.7,0,1.4,0,2-.2l16.6-4ZM101.7,256l-16.6,4c-4.6,1.1-7.4,5.7-6.3,10.3.9,3.8,4.3,6.5,8.3,6.5.7,0,1.4,0,2-.2l16.6-4c4.6-1,7.5-5.5,6.6-10.1s-5.5-7.5-10.1-6.6c-.2,0-.3,0-.4.1Z"/>
</svg>