<?xml version="1.0" encoding="UTF-8"?>
<svg id="Layer_1" xmlns="http://www.w3.org/2000/svg" version="1.1" viewBox="0 0 512 512">
  <!-- Generator: Adobe Illustrator 30.0.0, SVG Export Plug-In . SVG Version: 2.1.1 Build 123)  -->
  <defs>
    <style>
      .st0 {
        fill: #006cb6;
      }
    </style>
  </defs>
  <path class="st0" d="M385.4,102.8c4.1,0,7.5-3.4,7.5-7.5v-10.1c0-4.1-3.4-7.5-7.5-7.5s-7.5,3.4-7.5,7.5v10.1c0,4.1,3.4,7.5,7.5,7.5h0ZM467,169.4c-4.1,0-7.5,3.4-7.5,7.5s3.4,7.5,7.5,7.5h10.1c4.1,0,7.5-3.4,7.5-7.5s-3.4-7.5-7.5-7.5h-10.1ZM293.7,169.4c-4.1,0-7.5,3.4-7.5,7.5s3.4,7.5,7.5,7.5h10.1c4.1,0,7.5-3.4,7.5-7.5s-3.4-7.5-7.5-7.5h-10.1ZM418.3,409c-13.3,0-24.2,10.8-24.2,24.2s10.8,24.2,24.2,24.2,24.2-10.8,24.2-24.2-10.8-24.2-24.2-24.2ZM418.3,442.3c-5,0-9.2-4.1-9.2-9.2s4.1-9.2,9.2-9.2,9.2,4.1,9.2,9.2-4.1,9.2-9.2,9.2ZM144.4,433.1c0,13.3,10.8,24.2,24.2,24.2s24.2-10.8,24.2-24.2-10.8-24.2-24.2-24.2-24.2,10.8-24.2,24.2ZM177.7,433.1c0,5-4.1,9.2-9.2,9.2s-9.2-4.1-9.2-9.2,4.1-9.2,9.2-9.2,9.2,4.1,9.2,9.2ZM219.5,318c8.5-8.2,9.4-22.6-.2-31.9l-31.2-30.3c-11.2-10.9-29.3-10.7-40.2.5l-5.8,6c-2.9,3-2.8,7.7.1,10.6l30.1,29.2-30.1,29.2c-3,2.9-3,7.6-.1,10.6l5.8,6c11,11.3,29,11.5,40.2.5l31.3-30.5ZM158.7,337.5l-.6-.6,30.2-29.4c3-2.9,3-7.6.1-10.6,0,0,0,0-.1-.1l-30.2-29.4.6-.6c5.2-5.3,13.7-5.4,19-.3l31.2,30.3c3.3,3.2,2.9,7.8.2,10.4l-31.3,30.5c-5.3,5.2-13.8,5.1-19-.3h0ZM377.9,176.9c0,4.1,3.4,7.5,7.5,7.5h25.5c4.1,0,7.5-3.4,7.5-7.5s-3.4-7.5-7.5-7.5h-18v-46.7c0-4.1-3.4-7.5-7.5-7.5s-7.5,3.4-7.5,7.5v54.2ZM128.1,112.8h129.1c4.1,0,7.5-3.4,7.5-7.5s-3.4-7.5-7.5-7.5h-129.1c-4.1,0-7.5,3.4-7.5,7.5s3.4,7.5,7.5,7.5ZM96.8,151.6h134.1c4.1,0,7.5-3.4,7.5-7.5s-3.4-7.5-7.5-7.5H96.8c-4.1,0-7.5,3.4-7.5,7.5s3.4,7.5,7.5,7.5ZM173.5,171.1c-4.1,0-7.5,3.4-7.5,7.5s3.4,7.5,7.5,7.5h66.7c4.1,0,7.5-3.4,7.5-7.5s-3.4-7.5-7.5-7.5h-66.7ZM110.3,171.1c-4.1,0-7.5,3.4-7.5,7.5s3.4,7.5,7.5,7.5h33.3c4.1,0,7.5-3.4,7.5-7.5s-3.4-7.5-7.5-7.5h-33.3ZM7.5,289.4h27.4c4.1,0,7.5-3.4,7.5-7.5s-3.4-7.5-7.5-7.5H7.5c-4.1,0-7.5,3.4-7.5,7.5s3.4,7.5,7.5,7.5ZM27.5,355.5H7.5c-4.1,0-7.5,3.4-7.5,7.5s3.4,7.5,7.5,7.5h20c4.1,0,7.5-3.4,7.5-7.5s-3.4-7.5-7.5-7.5ZM115.7,292h-26.7c-4.1,0-7.5,3.4-7.5,7.5s3.4,7.5,7.5,7.5h26.7c4.1,0,7.5-3.4,7.5-7.5s-3.4-7.5-7.5-7.5Z"/>
  <path class="st0" d="M456,282c34.8-23.4,56-62.9,56-105.1s-4.6-39.3-13.6-57.1c-1.9-3.7-6.4-5.1-10.1-3.2-3.6,1.9-5.1,6.3-3.3,10,7.9,15.7,12,32.6,12,50.3,0,38-19.5,73.4-51.2,93.9l-43.7-47.8c-5.1-5.6-12.3-8.7-19.8-8.7h-102.1c-4.3-12-6.4-24.5-6.4-37.4,0-61.5,50.1-111.6,111.6-111.6s62.4,13.7,83.6,37.7c2.7,3.1,7.5,3.4,10.6.6,0,0,0,0,0,0,3.1-2.7,3.4-7.5.6-10.6,0,0,0,0,0,0-10.9-12.3-24.1-22.4-38.8-29.6v-25.4c0-9.2-7.5-16.7-16.7-16.7h-78.5c-9.2,0-16.7,7.5-16.7,16.7v25.4c-41.8,20.7-70.6,63.8-70.6,113.6s1.9,25.3,5.6,37.4H73.1c-9.6,0-17.4,7.4-18.2,16.8h-27.4c-4.1,0-7.5,3.4-7.5,7.5s3.4,7.5,7.5,7.5h27.4v72.5H7.5c-4.1,0-7.5,3.4-7.5,7.5s3.4,7.5,7.5,7.5h47.4v21.9c-4.1,0-7.4,3.5-7.3,7.7,0,4,3.3,7.2,7.3,7.3v53.1c0,7.9,6.4,14.3,14.3,14.3h20.2v5.2h-23.4c-4.1,0-7.5,3.4-7.5,7.5s3.4,7.5,7.5,7.5h30.9c4.1,0,7.5-3.4,7.5-7.5h0v-12.7h6.8c2.4,29.6,27.2,53,57.4,53,10,0,19.8-2.6,28.5-7.5,3.6-2,4.9-6.6,2.8-10.2-2-3.6-6.6-4.9-10.2-2.8h0c-6.4,3.6-13.7,5.6-21,5.6-23.5,0-42.6-19.1-42.6-42.6s19.1-42.6,42.6-42.6,42.6,19.1,42.6,42.6-1.4,12.6-4.1,18.3c-1.8,3.7-.2,8.2,3.5,10,3.7,1.8,8.2.2,10-3.5,0,0,0,0,0,0,3-6.3,4.8-13.1,5.4-20.1h134.9c2.4,29.6,27.2,53,57.4,53s55-23.4,57.4-53h15.4c11.5,0,20.9-9.4,20.9-20.9v-63.3c0-6.7-2.5-13.1-7-18.1l-49-53.6ZM344.4,38c0-1,.8-1.7,1.7-1.7h78.5c1,0,1.7.8,1.7,1.7v19.2c-13.2-4.5-27-6.8-41-6.8-14.3,0-28.1,2.4-41,6.8v-19.1h0ZM391,233.1l78.1,85.4h-55.9c-4.1,0-7.5,3.4-7.5,7.5s3.4,7.5,7.5,7.5h69.7l11.1,12.2c4.5,5,2.6,10.4,3.1,16.1h-5.8c-4.1,0-7.5,3.4-7.5,7.5s3.4,7.5,7.5,7.5h5.8v11.1h-43.1c-9.8-7.7-22.2-12.4-35.6-12.4s-25.8,4.6-35.6,12.4h-81.7v-158.6h32.3v89.2c0,8.3,6.8,15.1,15.1,15.1h34.8c4.1,0,7.5-3.4,7.5-7.5s-3.4-7.5-7.5-7.5h-34.8c0,0,0,0,0,0v-89.2h34c3.3,0,6.5,1.4,8.7,3.9h0ZM361.6,422.8h-60.7v-19.9h68.3c-3.8,6.1-6.4,12.8-7.7,19.9ZM217.6,402.9h68.3v19.9h-60.7c-1.3-7.1-3.9-13.8-7.7-19.9h0ZM69.9,402.9h49.7c-3.8,6.1-6.4,12.8-7.7,19.9h-42v-19.9ZM133,387.9h-63.1v-17.4h32.5c4.1,0,7.5-3.4,7.5-7.5s-3.4-7.5-7.5-7.5h-32.5v-21.9h32.5c4.1,0,7.5-3.4,7.5-7.5s-3.4-7.5-7.5-7.5h-32.5v-86c0-1.8,1.5-3.3,3.3-3.3h212.8v158.6h-81.7c-9.8-7.7-22.2-12.4-35.6-12.4s-25.8,4.6-35.6,12.4h0ZM418.3,475.8c-23.5,0-42.6-19.1-42.6-42.6s19.1-42.6,42.6-42.6,42.6,19.1,42.6,42.6-19.1,42.6-42.6,42.6ZM491.1,422.8h-16.2c-1.3-7.1-3.9-13.8-7.7-19.9h29.7v14c0,3.2-2.6,5.9-5.9,5.9Z"/>
</svg>