<?xml version="1.0" encoding="UTF-8"?>
<svg id="Layer_1" xmlns="http://www.w3.org/2000/svg" version="1.1" viewBox="0 0 512 512">
  <!-- Generator: Adobe Illustrator 30.0.0, SVG Export Plug-In . SVG Version: 2.1.1 Build 123)  -->
  <defs>
    <style>
      .st0 {
        fill: #006cb6;
      }
    </style>
  </defs>
  <path class="st0" d="M462,398.1c10.1-13.9,15.6-30.6,15.7-47.8.2-4.7-3.4-8.7-8.1-8.9,0,0,0,0,0,0-4.7-.2-8.7,3.4-8.9,8.1,0,13.6-4.1,26.9-12,38.1-16.6,21-48.2,22.1-54.4,22.1s-8.5,3.8-8.5,8.5,3.8,8.5,8.5,8.5c7.5,0,46.3-1.4,67.8-28.6ZM290.1,290.1c0-4.7-3.8-8.5-8.5-8.5s-8.5,3.8-8.5,8.5c0,18.9,15.3,34.1,34.1,34.1v8.5c0,4.7,3.8,8.5,8.5,8.5s8.5-3.8,8.5-8.5v-8.5c18.9,0,34.1-15.3,34.1-34.1s-15.3-34.1-34.1-34.1v-34.1c9.4,0,17.1,7.6,17.1,17.1s3.8,8.5,8.5,8.5,8.5-3.8,8.5-8.5c0-18.9-15.3-34.1-34.1-34.1v-8.5c0-4.7-3.8-8.5-8.5-8.5s-8.5,3.8-8.5,8.5v8.5c-18.9,0-34.1,15.3-34.1,34.1s15.3,34.1,34.1,34.1v34.1c-9.4,0-17.1-7.6-17.1-17.1ZM290.1,238.9c0-9.4,7.6-17.1,17.1-17.1v34.1c-9.4,0-17.1-7.6-17.1-17.1ZM324.3,273.1c9.4,0,17.1,7.6,17.1,17.1s-7.6,17.1-17.1,17.1v-34.1Z"/>
  <path class="st0" d="M504.9,288.2c-21-89.4-67.8-141.1-101.5-168.2,42.3,3.2,56,20.8,56.4,21.3,2.7,3.9,8,4.8,11.9,2.1,3.8-2.6,4.8-7.8,2.2-11.7-.6-.9-12.5-17.9-46.9-25.6,8.8-7.2,14-18,14.3-29.4-1.1-18.9-14.3-34.9-32.6-39.7.8-6.2,1.1-12.4,1.1-18.6,0-9.4-7.7-17.1-17.1-17-2.3,0-4.5.5-6.6,1.4-4.3,2-8.3,4.5-11.9,7.6-4.2,4.3-10,6.7-16,6.7-6,0-11.7-2.4-15.9-6.7-15-13.9-38.2-13.9-53.3,0-4.2,4.3-10,6.7-16,6.7-6,0-11.7-2.4-15.9-6.7-3.6-3.1-7.5-5.7-11.8-7.6-8.7-3.7-18.7.4-22.4,9.1-.9,2.1-1.3,4.3-1.3,6.6,0,21.2,4.2,59.1,30.8,84.5-14,8.5-27,18.4-38.9,29.6v-64.4c0-19.5-27.5-34.1-64-34.1s-64,14.7-64,34.1v86c-29.9,3-51.2,16.4-51.2,33.5v217c-20.6,5.5-34.1,16.8-34.1,30.4v42.7c0,19.5,27.5,34.1,64,34.1s58-11.8,63-28.2c14.7,7.8,31.2,11.6,47.9,11.1,36.5,0,64-14.7,64-34.1v-110.9c0-19.5-27.5-34.1-64-34.1s-8.6.2-12.8.6v-128.6c0-18.7-25.4-32.9-59.7-34v-61.8c14.5,7.4,30.7,11,46.9,10.5,16.3.5,32.4-3.1,46.9-10.5v58.2c-5.9,6.6-11.6,13.6-16.8,20.7-2.6,3.9-1.6,9.2,2.3,11.8,3.7,2.5,8.7,1.7,11.4-1.8,5.5-7.4,11.3-14.5,17.6-21.3l.2-.2c16.3-18.1,35.4-33.4,56.6-45.4,4.2,2,8.6,3.5,13.2,4.4l-22,20.5c-3.4,3.2-3.6,8.6-.4,12.1s8.6,3.6,12.1.4l34.1-31.8h2.7v25.6c0,4.7,3.8,8.5,8.5,8.5s8.5-3.8,8.5-8.5v-25.6h2.7l34.1,31.8c3.4,3.2,8.8,3,12.1-.4,3.2-3.4,3-8.8-.4-12.1l-22.1-20.6c4.5-.9,8.9-2.4,13.1-4.4,22.6,12.2,96.7,60.4,124.5,178.3,12.1,51.3,7.7,90.5-12.9,116.6-26.4,33.3-72.3,35-81.2,35h-121.1c-4.7,0-8.5,3.8-8.5,8.5s3.8,8.5,8.5,8.5h121.1c14.5,0,64-3,94.5-41.5,24-30.4,29.5-74.5,16.2-131.1h0ZM64,418.1c28.2,0,46.9,10.2,46.9,17.1s-18.7,17.1-46.9,17.1-46.9-10.2-46.9-17.1,18.7-17.1,46.9-17.1ZM64,494.9c-28.2,0-46.9-10.2-46.9-17.1v-19c14.5,7.4,30.7,11,46.9,10.5,16.3.5,32.4-3.1,46.9-10.5v19c0,6.8-18.7,17.1-46.9,17.1ZM174.9,477.9c-28.2,0-46.9-10.2-46.9-17.1v-87.3c14.5,7.4,30.7,11,46.9,10.5,16.3.5,32.4-3.1,46.9-10.5v87.3c0,6.8-18.7,17.1-46.9,17.1ZM221.9,349.9c0,6.8-18.7,17.1-46.9,17.1s-46.9-10.2-46.9-17.1,18.7-17.1,46.9-17.1,46.9,10.2,46.9,17.1ZM110.9,349.9v61.7c-14.5-7.4-30.7-11-46.9-10.5-4.3,0-8.6.2-12.8.6v-190.3c14.5,7.4,30.7,11,46.9,10.5,16.3.5,32.4-3.1,46.9-10.5v108.1c-20.6,5.5-34.1,16.8-34.1,30.4ZM145.1,187.7c0,6.8-18.7,17.1-46.9,17.1s-46.9-10.2-46.9-17.1,18.7-17.1,46.9-17.1,46.9,10.2,46.9,17.1ZM149.3,85.3c-28.2,0-46.9-10.2-46.9-17.1s18.7-17.1,46.9-17.1,46.9,10.2,46.9,17.1-18.7,17.1-46.9,17.1ZM424.1,76.8c0,14-15.1,25.5-34.1,25.6-3.2,0-6.3-.4-9.4-1.1,12.4-13.2,21-29.5,24.9-47.2,10.3,3,17.7,12,18.6,22.7ZM246.3,23.7c7.2,6.8,16.7,10.5,26.6,10.4,9.9,0,19.4-3.7,26.6-10.4,8.7-8.8,22.9-8.9,31.8-.2,0,0,.1.1.2.2,7.2,6.8,16.7,10.5,26.6,10.4,9.9,0,19.4-3.7,26.6-10.4,2.4-2.1,5-3.9,7.8-5.3,0,15.8-2.9,55-30.4,76.5-6.2,4.6-13.7,7.2-21.4,7.3,7.4-12.7,13.2-26.2,17.4-40.3,1.3-4.5-1.4-9.3-5.9-10.5-4.5-1.3-9.3,1.4-10.5,5.9h0c-4.7,16-12,31.2-21.5,45h-8.8c-9.5-13.8-16.8-28.9-21.5-45-1.3-4.5-6-7.2-10.5-5.9-4.5,1.3-7.2,6-5.9,10.5,4.2,14.1,10,27.6,17.4,40.3-7.9,0-15.6-2.6-21.9-7.4-27.5-21.5-30.4-60.6-30.4-76.4,2.8,1.4,5.5,3.1,7.8,5.2Z"/>
  <path class="st0" d="M462,398.1c10.1-13.9,15.6-30.6,15.7-47.8.2-4.7-3.4-8.7-8.1-8.9,0,0,0,0,0,0-4.7-.2-8.7,3.4-8.9,8.1,0,13.6-4.1,26.9-12,38.1-16.6,21-48.2,22.1-54.4,22.1s-8.5,3.8-8.5,8.5,3.8,8.5,8.5,8.5c7.5,0,46.3-1.4,67.8-28.6Z"/>
</svg>