<?xml version="1.0" encoding="UTF-8"?>
<svg id="Layer_1" xmlns="http://www.w3.org/2000/svg" version="1.1" viewBox="0 0 20 20">
  <!-- Generator: Adobe Illustrator 30.0.0, SVG Export Plug-In . SVG Version: 2.1.1 Build 123)  -->
  <defs>
    <style>
      .st0 {
        fill: #006cb6;
      }
    </style>
  </defs>
  <path class="st0" d="M10,3.8c-2.6-.1-4.9,1.9-5,4.5,0,.1,0,.3,0,.4,0,1.6,1.2,3.1,1.9,3.7s3.1,3.7,3.1,3.7c0,0,2.5-3.1,3.1-3.7s1.9-2.2,1.9-3.7c.1-2.6-1.9-4.9-4.5-5-.1,0-.3,0-.4,0ZM10,10.8c-1.1,0-2-.9-2-2s.9-2,2-2,2,.9,2,2-.9,2-2,2Z"/>
</svg>