<?xml version="1.0" encoding="UTF-8"?>
<svg id="Layer_1" xmlns="http://www.w3.org/2000/svg" version="1.1" viewBox="0 0 512 512">
  <!-- Generator: Adobe Illustrator 30.0.0, SVG Export Plug-In . SVG Version: 2.1.1 Build 123)  -->
  <defs>
    <style>
      .st0 {
        fill: #006cb6;
      }
    </style>
  </defs>
  <path class="st0" d="M501,279.5c-10.6-14.2-27.5-22.2-49.1-23.3-4.1-.2-8.2-.1-12.2.2-6.2.5-16,5.8-18.1,16.4-1.5,7.5-3.7,16.1-5.9,24.5-2,7.7-4.1,15.7-5.6,22.9-2.2,10.7,2.3,16.4,7.1,20.6.2.2.4.3.6.5l10.4,7.4c-3.2,13.4-10.9,25.9-18.2,36.6-7.1,10.3-16.5,22.9-28.1,31.2,0,0-11.3-7-11.6-7.2-8.1-3.9-14.6-3.4-21.7,1.5-4.6,3.2-9.6,6.8-14.6,10.5-8.6,6.3-17.5,12.8-25.4,17.6-9.5,5.7-10.7,17-8.7,23.1,1.5,4.5,2.9,8,4.3,11,11.3,24.8,31.1,39,54.1,39s27.4-4.9,40.3-14.2c33.5-24.4,48.5-42.2,69.4-73,3.9-5.8,7.5-11,10.7-16.2,15.2-24,23.2-43.6,30.8-74.6,5-20.9,2-40.2-8.7-54.4h0ZM494.1,330.1c-8.1,33.1-16.7,50.7-28.8,69.9h0c-3.2,5.1-6.6,10.2-10.4,15.8-20.2,29.8-33.7,45.9-65.5,69.1-10.1,7.3-20.8,11.2-30.9,11.2-16.7,0-30.8-10.5-39.6-29.8-1.4-3-2.6-6.1-3.6-9.3,0,0-.4-3,1.7-4.3,8.5-5.1,17.7-11.9,26.6-18.4,4.9-3.6,9.7-7.2,14.3-10.3,1.2-.8,4.2-1,5.4-.4l14.7,9.2c2.6,1.6,5.8,1.6,8.4,0,16.1-9.7,28.3-25.7,37-38.5,9.2-13.5,19-29.7,21.7-48.1.4-3-.8-6-3.3-7.7l-14.3-10.1c-2.2-2-2.2-2.3-1.7-4.9,1.6-7.4,3.4-14.8,5.4-22.2,2.2-8.6,4.6-17.5,6.1-25.4.4-2.2,3-3.4,3.4-3.5,3.9-.2,7.3-.3,10.4-.2,16.6.8,29.4,6.6,37,16.9,7.7,10.3,9.8,24.9,5.9,41h0ZM274.4,210.2c-.3.2-6.3,5.8-18.4,5.8s-18.2-5.5-18.3-5.7c-3.1-3.1-8.2-3.1-11.3,0s-3.1,8.2,0,11.3c1.1,1.1,10.9,10.3,29.7,10.3s28.6-9.3,29.7-10.3c3.1-3.1,3.1-8.1,0-11.2-3.1-3.1-8.1-3.2-11.3-.2ZM256,199.6c4.4,0,8-3.6,8-8v-23.6c0-4.4-3.6-8-8-8s-8,3.6-8,8v23.6c0,4.4,3.6,8,8,8ZM472,448c-4.4,0-8,3.6-8,8v40h-32c-4.4,0-8,3.6-8,8s3.6,8,8,8h40c4.4,0,8-3.6,8-8v-48c0-4.4-3.6-8-8-8Z"/>
  <path class="st0" d="M277.9,411.9c11.6,5.8,24.9,6,36.6.5s20.2-15.8,23.1-28.4l15.3-65.1,28.4,10c4.2,1.3,8.7-1,10-5.2,1.3-4-.8-8.3-4.7-9.8l-66.6-23.4v-34.8c.2-.2,16.4-12.5,23.1-31.6,0,0,18.2,0,18.8-.2,1.6-.4,38.1-10.1,38.1-63.8s-36.5-63.4-38.1-63.8c-.6-.2-3.3-.2-3.3-.2-4.4-29.8-23-96-102.6-96s-98.2,66.2-102.6,96c0,0-2.7,0-3.3.2-1.6.4-38.1,10.1-38.1,63.8s18,53.7,29.3,60c-3.2,8.2-6.7,21.4-2.4,34.2,3.8,11.3,12.6,19.8,26.1,25.2,4.1,1.6,8.8-.4,10.4-4.5,1.6-4.1-.4-8.8-4.5-10.4-9.1-3.6-14.6-8.7-16.9-15.4-3.2-9.3.4-19.7,2.9-25.2h11.9c5.5,11.9,13.3,22.6,23.1,31.4v35l-86.7,30.4c-11.4,3.9-22.1,9.8-31.5,17.3h-.2c0,.1,0,.2,0,.2h0c-26.3,20.7-41.6,52.4-41.5,85.8v80c0,4.4,3.6,8,8,8h248c4.4,0,8-3.6,8-8s-3.6-8-8-8h-24v-91.1l13.9,6.9ZM208,267.1c14.6,8.4,31.1,12.9,48,12.9,16.9,0,33.4-4.5,48-12.9v26.7l-48,82.3-48-82.3v-26.7ZM337.8,313.5l-15.7,66.7c-1.8,7.8-7.1,14.3-14.3,17.6-7.2,3.4-15.6,3.3-22.7-.3l-17.8-8.9,48.4-82.9,22.2,7.8ZM383.6,152h-7.6c-4.4,0-8,3.6-8,8s3.6,8,8,8h7.6c-2.7,30.5-20.8,38.6-24.8,40h-9.8c1.2-4.8,2.2-9.7,2.6-14.8l3-29.1h0s5.3-51.3,5.3-51.3v-.4c5.6,2.4,21.1,11.4,23.6,39.5h0ZM256,16c71.4,0,85,62.1,87.6,88.8.3,3.6.4,6,.4,6.9l-3.3,32c-6.5-9.7-12.7-23.1-12.7-39.6s-3.6-8-8-8-49.5-.4-56.2-33.6c-.9-4.3-5.1-7.1-9.4-6.2-3.1.6-5.6,3.1-6.2,6.2-6.6,33-55.7,33.6-56.2,33.6-4.4,0-8,3.6-8,8,0,16.5-6.2,30-12.7,39.6l-3.3-32c0-.9,0-3.3.4-6.9,2.5-26.7,16.2-88.8,87.6-88.8ZM128.4,168h7.6c4.4,0,8-3.6,8-8s-3.6-8-8-8h-7.6c2.5-28.2,18.1-37.2,23.6-39.5v.4s8.3,80.4,8.3,80.4c.5,5,1.4,10,2.7,14.8h-9.8c-4.1-1.5-22.1-9.6-24.8-40h0ZM181.4,213c-2.7-6.9-4.5-14.1-5.2-21.4l-2.6-25.4c8.9-9.2,23.6-28.2,26-54.6,13.6-1.3,41.9-6.5,56.4-27.3,14.5,20.8,42.7,26,56.4,27.3,2.4,26.4,17.1,45.4,26,54.6l-2.6,25.4c-.7,7.5-2.9,14.6-5.2,21.5-6.6,20-22.8,31.9-23.6,32.6-14.3,11.8-32.4,18.3-50.9,18.3s-36.6-6.5-50.9-18.2c-10.6-8.7-18.7-20-23.7-32.7ZM196.4,305.7l48.4,82.9-17.8,8.9c-7.1,3.6-15.5,3.7-22.7.3-7.2-3.4-12.5-9.9-14.3-17.6l-15.7-66.7,22.2-7.8ZM48,424c0-19.5,6-38.2,17.2-54.1,3.6-5.1,7.9-9.6,12.5-13.9,13,17.4,26.3,43.2,26.3,76v64h-56v-72ZM192,496h-72v-24h72v24ZM208,496v-32c0-4.4-3.6-8-8-8h-80v-24c0-37.4-15.2-66.6-29.9-86.1,6.4-4.2,13.2-7.6,20.4-10.1l48.5-17,15.3,65.1c2.9,12.5,11.5,23,23.1,28.4,5.6,2.6,11.7,4,17.8,4,6.4,0,12.9-1.5,18.8-4.5l13.8-6.9v91.1h-40Z"/>
  <circle class="st0" cx="228" cy="140" r="12"/>
  <circle class="st0" cx="284" cy="140" r="12"/>
</svg>