<?xml version="1.0" encoding="UTF-8"?>
<svg id="Layer_1" xmlns="http://www.w3.org/2000/svg" version="1.1" viewBox="0 0 512 512">
  <!-- Generator: Adobe Illustrator 30.0.0, SVG Export Plug-In . SVG Version: 2.1.1 Build 123)  -->
  <defs>
    <style>
      .st0 {
        fill: #006cb6;
      }
    </style>
  </defs>
  <path class="st0" d="M341.1,213.8c8.5-8.4,13.8-20.2,13.8-33.1,0-25.7-20.9-46.6-46.6-46.6s-37.3,12.5-43.9,30.9c-2.7-.5-5.6-.8-8.5-.8s-5.7.3-8.5.8c-6.5-18.4-24.1-30.9-43.9-30.9s-46.6,20.9-46.6,46.6,5.3,24.6,13.8,33.1c-20.5,11.7-33.6,33.7-33.6,57.7s3.4,7.5,7.5,7.5,7.5-3.4,7.5-7.5c0-21.2,13.3-40.5,33.1-48,8.4,3.6,17.8,4.7,26.8,3,2.4,6.6,6.1,12.5,11.1,17.4-20.8,11.8-33.7,33.8-33.6,57.7,0,4.1,3.4,7.5,7.5,7.5s7.5-3.4,7.5-7.5c0-20.7,12.3-39.3,31.4-47.3.5-.2,1-.5,1.4-.8,5.9,2.6,12.2,3.9,18.6,3.9,6.5,0,12.7-1.3,18.3-3.8,19.8,7.6,33.1,26.8,33.1,48s3.4,7.5,7.5,7.5,7.5-3.4,7.5-7.5c0-24-13.2-46.1-33.6-57.7,5-4.9,8.8-10.9,11.1-17.4,9,1.7,18.3.7,26.8-3,19.8,7.6,33.1,26.8,33.1,48s3.4,7.5,7.5,7.5,7.5-3.4,7.5-7.5c0-24-13.2-46.1-33.6-57.7h0ZM209.4,210.9c0,.3,0,.6,0,.9-1.9.4-3.8.5-5.8.5-17.4,0-31.6-14.2-31.6-31.6s14.2-31.6,31.6-31.6,25.3,8.5,29.7,21c-14.3,8-24,23.2-24,40.7ZM224.4,210.9c0-17.4,14.2-31.6,31.6-31.6s31.6,14.2,31.6,31.6-14.2,31.6-31.6,31.6-31.6-14.2-31.6-31.6h0ZM302.5,211.8c0-.3,0-.6,0-.9,0-17.5-9.7-32.7-24-40.7,4.4-12.5,16.3-21,29.7-21s31.6,14.2,31.6,31.6-14.2,31.6-31.6,31.6c-1.9,0-3.9-.2-5.8-.5Z"/>
  <path class="st0" d="M450.2,324.1v-136.3c18.7-3.5,32.9-20,32.9-39.7s-18.1-40.4-40.4-40.4-23.2,5.5-30.6,14.1l-118-68.1c1.5-4.3,2.3-8.8,2.3-13.3,0-22.3-18.1-40.4-40.4-40.4s-40.4,18.1-40.4,40.4.8,9.2,2.3,13.3l-118,68.1c-7.4-8.6-18.4-14.1-30.6-14.1-22.3,0-40.4,18.1-40.4,40.4s14.2,36.1,32.9,39.7v136.3c-18.7,3.5-32.9,20-32.9,39.7s18.1,40.4,40.4,40.4,23.2-5.5,30.6-14.1l118,68.1c-1.5,4.3-2.3,8.8-2.3,13.3,0,22.3,18.1,40.4,40.4,40.4s40.4-18.1,40.4-40.4-.8-9.2-2.3-13.3l118-68.1c7.4,8.6,18.4,14.1,30.6,14.1,22.3,0,40.4-18.1,40.4-40.4,0-19.7-14.2-36.1-32.9-39.7ZM442.7,122.7c14,0,25.4,11.4,25.4,25.4s-11.4,25.4-25.4,25.4-25.4-11.4-25.4-25.4,11.4-25.4,25.4-25.4ZM256,15c14,0,25.4,11.4,25.4,25.4s-11.4,25.4-25.3,25.4h0s0,0,0,0c-14,0-25.3-11.4-25.3-25.4s11.4-25.4,25.4-25.4ZM43.9,148.1c0-14,11.4-25.4,25.4-25.4s25.4,11.4,25.4,25.4-11.4,25.4-25.4,25.4-25.4-11.4-25.4-25.4h0ZM69.3,389.2c-14,0-25.4-11.4-25.4-25.4s11.4-25.4,25.4-25.4,25.4,11.4,25.4,25.4-11.4,25.4-25.4,25.4ZM256,497c-14,0-25.4-11.4-25.4-25.4s11.4-25.4,25.4-25.4,25.4,11.4,25.4,25.4-11.4,25.4-25.4,25.4h0ZM286.6,445.3c-5.9-6.8-13.9-11.6-23.1-13.4v-28.9c0-4.1-3.4-7.5-7.5-7.5s-7.5,3.4-7.5,7.5v28.9c-9.2,1.7-17.2,6.6-23.1,13.4l-118-68.1c1.5-4.3,2.3-8.8,2.3-13.3,0-4.7-.8-9.2-2.3-13.4l25-14.5c3.6-2.1,4.7-6.7,2.6-10.3-2.1-3.5-6.6-4.7-10.1-2.7l-25.1,14.5c-5.9-6.8-13.9-11.6-23.1-13.3v-136.3c9.2-1.7,17.2-6.6,23.1-13.4l25.1,14.5c3.6,2.1,8.2.8,10.2-2.7,0,0,0,0,0,0,2.1-3.6.8-8.2-2.7-10.2,0,0,0,0,0,0l-25.1-14.5c1.5-4.3,2.3-8.8,2.3-13.3,0-4.5-.8-9-2.3-13.3l118-68.1c5.9,6.8,13.9,11.6,23.1,13.4v28.9c0,4.1,3.4,7.5,7.5,7.5s7.5-3.4,7.5-7.5v-28.9c9.2-1.7,17.2-6.6,23.1-13.4l118,68.1c-1.5,4.3-2.3,8.8-2.3,13.3,0,4.7.8,9.2,2.3,13.3l-25.1,14.5c-3.6,2.1-4.8,6.7-2.7,10.2,2.1,3.6,6.7,4.8,10.2,2.7l25.1-14.5c5.9,6.8,13.9,11.6,23.1,13.4v136.3c-9.2,1.7-17.2,6.6-23.1,13.3l-25.1-14.5c-3.6-2.1-8.2-.8-10.2,2.7s-.8,8.2,2.7,10.2h0l25,14.5c-1.5,4.3-2.3,8.8-2.3,13.4,0,4.7.8,9.2,2.3,13.3l-118,68.1ZM442.7,389.2c-14,0-25.4-11.4-25.4-25.4s11.4-25.4,25.4-25.4,25.4,11.4,25.4,25.4-11.4,25.4-25.4,25.4Z"/>
  <path class="st0" d="M318.8,333.5h-22.3c-4.1,0-7.5,3.4-7.5,7.5s3.4,7.5,7.5,7.5h22.3c4.1,0,7.5-3.4,7.5-7.5s-3.4-7.5-7.5-7.5ZM318.8,362.9h-125.6c-4.1,0-7.5,3.4-7.5,7.5s3.4,7.5,7.5,7.5h125.6c4.1,0,7.5-3.3,7.6-7.4,0-4.1-3.3-7.5-7.4-7.6,0,0-.1,0-.2,0ZM193.2,348.5h.1c4.1,0,7.5-3.4,7.5-7.5s-3.4-7.5-7.5-7.5h-.1c-4.1,0-7.5,3.4-7.5,7.5s3.4,7.5,7.5,7.5ZM219.3,348.5c4.1,0,7.5-3.4,7.5-7.5s-3.4-7.5-7.5-7.5h-.1c-4.1,0-7.5,3.4-7.5,7.5s3.4,7.5,7.5,7.5h.1ZM245.2,348.5c4.1,0,7.5-3.4,7.5-7.5s-3.4-7.5-7.5-7.5h-.1c-4.1,0-7.5,3.4-7.5,7.5s3.4,7.5,7.5,7.5h.1Z"/>
</svg>