<?xml version="1.0" encoding="utf-8"?>
<!-- Generator: Adobe Illustrator 30.0.0, SVG Export Plug-In . SVG Version: 9.03 Build 0)  -->
<svg version="1.0" id="svg1925" xmlns:svg="http://www.w3.org/2000/svg"
	 xmlns="http://www.w3.org/2000/svg" xmlns:xlink="http://www.w3.org/1999/xlink" x="0px" y="0px" viewBox="0 0 20 20"
	 style="enable-background:new 0 0 20 20;" xml:space="preserve">
<style type="text/css">
	.st0{fill:#006CB6;}
</style>
<g id="g1934">
	<path id="path1950" class="st0" d="M14.2,18.6c-1.6-0.4-2.6-0.8-3.9-1.5c-2.5-1.2-4.8-3-6.6-5c-1.4-1.6-2.3-2.9-3.1-4.7
		C0.1,6.4,0.1,6.2,0,5.5C0,4.8,0,4.7,0.3,4C1,2.6,2,1.5,3.4,0.9c0.8-0.4,1.1-0.4,1.3-0.2C4.9,1,6.6,5.7,6.6,6c0,0.3-0.2,0.4-1.2,0.8
		c-0.8,0.3-1,0.6-0.9,0.9c0,0.1,2,1.7,4.3,3.6c2.7,2.2,4.3,3.4,4.4,3.4c0.3,0,0.5-0.3,0.5-0.6c0-0.6,0.1-1,0.3-1.1
		c0.2-0.1,0.5-0.1,3-0.3c2.3-0.2,2.6-0.2,2.7,0.1c0.1,0.1,0.2,0.5,0.2,0.9c0.2,1.6-0.5,3.1-1.8,4.4C17,19,16.2,19.1,14.2,18.6z"/>
	<path id="path1948" class="st0" d="M14.2,18.6c-3.2-0.9-5.9-2.3-8.3-4.4C3.7,12.3,1.9,10,0.6,7.4C0.1,6.4,0.1,6.2,0,5.5
		C0,4.8,0,4.7,0.3,4C1,2.6,2.1,1.5,3.5,0.9c0.8-0.3,1-0.4,1.2-0.1C4.9,1,6.6,5.7,6.6,6c0,0.3-0.2,0.4-1.2,0.8
		c-0.8,0.3-1,0.6-0.9,0.9c0,0.1,2,1.7,4.3,3.6c2.7,2.2,4.3,3.4,4.4,3.4c0.3,0,0.5-0.3,0.5-0.7c0-0.5,0.2-1.1,0.4-1.1
		c0.2-0.1,4.5-0.4,5-0.4c0.6,0,0.7,0.2,0.8,1.2c0,0.7-0.1,1.4-0.3,2.2c-0.1,0.5-0.9,1.5-1.5,2C17,19,16.2,19.1,14.2,18.6z"/>
	<path id="path1946" class="st0" d="M14.2,18.6c-1.5-0.4-2.6-0.8-3.9-1.5C6,15,2.4,11.3,0.4,6.9C0.1,6.3,0,6,0,5.5
		c0-0.7,0-0.8,0.4-1.5c0.7-1.4,1.8-2.5,3.1-3c0.4-0.2,0.8-0.3,0.8-0.3C4.6,0.6,4.9,1,5.2,2c0.2,0.6,0.6,1.7,0.9,2.4
		c0.5,1.4,0.6,1.7,0.4,1.9C6.4,6.4,6,6.6,5.5,6.8c-0.9,0.4-1.1,0.6-1,0.9c0,0.1,2,1.7,4.3,3.6c4.4,3.5,4.6,3.7,4.8,3.2
		c0.1-0.1,0.1-0.3,0.1-0.5c0-0.5,0.2-1,0.4-1.1c0.2-0.1,4.5-0.4,5-0.4c0.3,0,0.5,0,0.6,0.2c0.3,0.5,0.3,2.1-0.1,3.1
		c-0.3,1-1.6,2.4-2.6,2.8C16.4,19,15.7,19,14.2,18.6z"/>
	<path id="path1944" class="st0" d="M15.3,18.8c-0.1,0-0.6-0.2-1.2-0.3C8.2,16.9,3.3,12.8,0.6,7.4C0.1,6.3,0,6.1,0,5.5
		c0-0.7,0-0.8,0.4-1.5C1,2.6,2,1.6,3.3,1c0.8-0.4,1.1-0.4,1.3-0.3c0.2,0.1,2,4.9,2,5.3c0,0.3-0.1,0.3-1.1,0.7
		c-0.9,0.4-1.1,0.6-1,0.9c0,0.1,1.1,1,2.2,1.9s2.6,2.1,3.1,2.5c2.9,2.4,3.2,2.6,3.5,2.6c0.3,0,0.5-0.2,0.5-0.7c0-0.5,0.2-1,0.4-1.1
		c0.2-0.1,4.5-0.4,5.1-0.4c0.6,0,0.7,0.2,0.7,1.4c0,1.6-0.5,2.9-1.8,4c-0.8,0.7-1.4,1-2.2,1C15.7,18.9,15.3,18.9,15.3,18.8z"/>
	<path id="path1942" class="st0" d="M14.8,18.7C12.7,18.2,9.9,17,8,15.7c-3.2-2.1-5.7-4.9-7.4-8.3L0,6.2V5.4c0-0.8,0-0.9,0.3-1.5
		c0.3-0.6,1-1.5,1.4-1.9c0.4-0.4,1.5-1,2-1.2c0.6-0.2,0.9-0.2,1,0.1C5,1.2,6.6,5.8,6.6,6c0,0.3-0.1,0.3-1,0.7
		C4.7,7.1,4.5,7.3,4.5,7.6c0,0.2,1.4,1.3,4.2,3.6c2.3,1.8,4.2,3.4,4.4,3.5c0.4,0.2,0.6,0,0.7-0.8c0-0.4,0.1-0.7,0.2-0.8
		c0.1-0.1,0.6-0.2,2.2-0.3c1.1-0.1,2.3-0.2,2.7-0.2c0.7,0,0.7,0,0.9,0.3c0.2,0.4,0.2,2-0.1,2.7c-0.4,1.1-1.5,2.5-2.6,3.1
		C16.6,18.9,15.8,18.9,14.8,18.7z"/>
	<path id="path1940" class="st0" d="M14.5,18.6C8.6,17.1,3.7,13.2,0.8,7.8c-1-1.9-1.1-2.6-0.4-4C1,2.8,1.8,1.8,2.6,1.4
		c0.7-0.4,1.7-0.8,1.9-0.7c0.2,0.1,0.5,0.6,0.9,1.8c0.1,0.4,0.5,1.4,0.8,2.1C6.4,5.3,6.6,6,6.6,6.1c0,0.2-0.3,0.3-1,0.6
		c-0.8,0.3-1,0.5-1,0.6c0,0.1,0,0.3,0,0.4s0.6,0.5,1.2,1s2,1.6,3.1,2.5c3.7,3,4.3,3.5,4.4,3.5c0.1,0,0.2-0.1,0.3-0.1
		c0.2-0.1,0.2-0.3,0.3-0.8c0.1-0.5,0.1-0.7,0.3-0.8c0.3-0.2,5.2-0.6,5.5-0.4c0.4,0.2,0.4,1.6,0.2,2.7c-0.2,0.8-0.7,1.6-1.4,2.3
		C17.1,18.9,16.4,19.1,14.5,18.6z"/>
	<path id="path1938" class="st0" d="M15.1,18.7c-4.5-1-8.7-3.6-11.8-7.3C1.9,9.8,0.1,6.7,0,5.7c-0.1-1.1,0.5-2.3,1.6-3.5
		c0.8-0.8,1.9-1.4,2.6-1.4c0.5,0,0.5,0,1.3,2.1c0.9,2.6,1.1,3.1,1,3.3c0,0.1-0.4,0.3-1,0.5C4.8,7,4.6,7.1,4.6,7.3
		c-0.1,0.2-0.1,0.3,0,0.4c0.1,0.2,7.7,6.4,8.3,6.8c0.6,0.4,1,0.1,1-0.9c0-0.6,0.1-0.7,1.7-0.8c0.8-0.1,2-0.2,2.7-0.2
		c1.5-0.1,1.5-0.1,1.6,1.1c0.1,1.7-0.3,2.7-1.6,4c-0.7,0.7-0.9,0.9-1.4,1C16.3,18.9,16,18.9,15.1,18.7z"/>
	<path id="path1936" class="st0" d="M14.9,18.6c-2.9-0.7-5.7-2-8.2-3.9C5.1,13.5,3,11.2,1.8,9.4C1.2,8.5,0.4,6.8,0.2,6.3
		c-0.4-1.1-0.1-2.1,0.9-3.5c0.8-1.2,3.2-2.5,3.5-2C4.8,0.9,5,1.6,5.9,4.1c0.8,2.1,0.8,2.2-0.1,2.5C4.9,6.9,4.6,7.1,4.5,7.4
		c0,0.4,0,0.5,0.9,1.2c3,2.4,6.5,5.2,7,5.7c0.3,0.3,0.7,0.5,0.8,0.5c0.4,0,0.6-0.3,0.6-1.1c0-0.6,0.2-0.8,1.4-0.9
		c4.6-0.4,4.2-0.4,4.4-0.2c0.3,0.3,0.3,1.5,0.1,2.5c-0.2,1-0.8,1.9-1.7,2.7C17,18.8,16.4,19,14.9,18.6z"/>
</g>
</svg>
