<?xml version="1.0" encoding="UTF-8"?>
<svg id="Layer_1" xmlns="http://www.w3.org/2000/svg" version="1.1" viewBox="0 0 512 512">
  <!-- Generator: Adobe Illustrator 30.0.0, SVG Export Plug-In . SVG Version: 2.1.1 Build 123)  -->
  <defs>
    <style>
      .st0 {
        fill: #006cb6;
      }
    </style>
  </defs>
  <path class="st0" d="M104,104c-22.1,0-40,17.9-40,40s17.9,40,40,40,40-17.9,40-40-17.9-40-40-40ZM104,168c-13.2,0-24-10.8-24-24s10.8-24,24-24,24,10.8,24,24-10.8,24-24,24ZM491.7,136.9L259.7,16.9c-2.3-1.2-5-1.2-7.3,0l-101.7,52.6c-14-8.8-30.1-13.5-46.6-13.5-48.5,0-88,39.5-88,88v96c0,4.4,3.6,8,8,8h53.2c6.9,7.5,13.9,14.8,21.3,21.8,3.1,2.9,7.9,2.9,11,0,7.3-7,14.4-14.3,21.3-21.8h37.2v158.5c-7.3,4.2-13.3,10.2-17.5,17.5H24c-4.4,0-8,3.6-8,8s3.6,8,8,8h120.7c-.4,2.6-.7,5.3-.7,8s.3,5.4.7,8H24c-4.4,0-8,3.6-8,8s3.6,8,8,8h126.5c8.3,14.3,23.8,24,41.5,24s33.2-9.7,41.5-24h70.5c13.2,0,24-10.8,24-24s-3.1-13.4-8-17.8v-54.2c0-13.2-10.8-24-24-24h-10l-17.2-57.2c-4-13.6-16.5-22.9-30.7-22.8h-54.1v-32c0-4.4-3.6-8-8-8h-31.1c2.2-2.6,4.4-5.3,6.6-8h288.5v96h-88c-4.4,0-8,3.6-8,8v160c0,4.4,3.6,8,8,8h136c4.4,0,8-3.6,8-8V144c0-3-1.7-5.7-4.3-7.1ZM192,480c-17.6,0-32-14.4-32-32s14.4-32,32-32,32,14.4,32,32-14.4,32-32,32ZM304,456h-64.7c.4-2.6.7-5.3.7-8s-.3-5.4-.7-8h64.7c4.4.2,7.8,3.9,7.6,8.4-.2,4.1-3.5,7.5-7.6,7.6ZM269.2,352h-45.2v-32h35.6l9.6,32ZM238.1,288c7.1,0,13.3,4.6,15.3,11.4l1.4,4.6h-38.8c-4.4,0-8,3.6-8,8v48c0,4.4,3.6,8,8,8h80c4.4,0,8,3.6,8,8v48h-70.5c-8.6-14.8-24.4-24-41.5-24-2.7,0-5.4.3-8,.7v-112.7h54.1ZM32,232v-42.7c8.9,14.9,20.3,29.8,31.1,42.7h-31.1ZM104,252.8c-24.3-24.1-72-78-72-108.8s32.3-72,72-72,72,32.3,72,72-6.3,25.3-15.4,40h-.6v1c-16.1,25.6-40.7,52.6-56,67.8ZM163.7,208c1.9-2.6,3.7-5.3,5.5-8h270.7v8H163.7ZM408,336v13.8l-1.4-2c-2.5-3.7-7.4-4.6-11.1-2.2-.9.6-1.6,1.3-2.2,2.2l-1.4,2v-13.8h16ZM360,336h16v40c0,4.4,3.6,8,8,8,2.7,0,5.2-1.3,6.7-3.5l9.4-13.9,9.4,13.9c2.5,3.7,7.4,4.6,11.1,2.2,2.2-1.5,3.5-4,3.5-6.6v-40h16v64h-80v-64ZM392,416h16v13.8l-1.4-2c-2.5-3.7-7.4-4.6-11.1-2.2-.9.6-1.6,1.3-2.2,2.2l-1.4,2v-13.8ZM360,416h16v40c0,4.4,3.6,8,8,8,2.7,0,5.2-1.3,6.7-3.5l9.4-13.9,9.4,13.9c2.5,3.7,7.4,4.6,11.1,2.2,2.2-1.5,3.5-4,3.5-6.6v-40h16v64h-80v-64ZM480,480h-24V192c0-4.4-3.6-8-8-8H179.1c7.8-14.1,12.9-28,12.9-40,0-25.1-10.6-47.6-27.4-63.7l91.4-47.3,224,115.9v331.1ZM216,120c0,22.1,17.9,40,40,40s40-17.9,40-40-17.9-40-40-40-40,17.9-40,40ZM280,120c0,13.2-10.8,24-24,24s-24-10.8-24-24,10.8-24,24-24,24,10.8,24,24ZM192,424c-13.2,0-24,10.8-24,24s10.8,24,24,24,24-10.8,24-24-10.8-24-24-24ZM192,456c-4.4,0-8-3.6-8-8s3.6-8,8-8,8,3.6,8,8-3.6,8-8,8ZM16,384c0-4.4,3.6-8,8-8h72c4.4,0,8,3.6,8,8s-3.6,8-8,8H24c-4.4,0-8-3.6-8-8ZM16,344c0-4.4,3.6-8,8-8h64c4.4,0,8,3.6,8,8s-3.6,8-8,8H24c-4.4,0-8-3.6-8-8ZM16,304c0-4.4,3.6-8,8-8h56c4.4,0,8,3.6,8,8s-3.6,8-8,8H24c-4.4,0-8-3.6-8-8Z"/>
</svg>